<svg xmlns="http://www.w3.org/2000/svg" viewBox="0 0 1080 1080" width="1080" height="1080">
  <rect width="1080" height="1080" fill="#000000"/>
  
  <g>
    <rect x="220" y="400" width="14" height="14" fill="rgba(255,255,255,0.9)"/>
    <rect x="236" y="400" width="14" height="14" fill="rgba(255,255,255,0.9)"/>
    <rect x="252" y="400" width="14" height="14" fill="rgba(255,255,255,0.9)"/>
    <rect x="268" y="400" width="14" height="14" fill="rgba(255,255,255,0.9)"/>
    <rect x="220" y="416" width="14" height="14" fill="rgba(255,255,255,0.9)"/>
    <rect x="220" y="432" width="14" height="14" fill="rgba(255,255,255,0.9)"/>
    <rect x="236" y="432" width="14" height="14" fill="rgba(255,255,255,0.9)"/>
    <rect x="252" y="432" width="14" height="14" fill="rgba(255,255,255,0.9)"/>
    <rect x="220" y="448" width="14" height="14" fill="rgba(255,255,255,0.9)"/>
    <rect x="220" y="464" width="14" height="14" fill="rgba(255,255,255,0.9)"/>
    <rect x="236" y="464" width="14" height="14" fill="rgba(255,255,255,0.9)"/>
    <rect x="252" y="464" width="14" height="14" fill="rgba(255,255,255,0.9)"/>
    <rect x="268" y="464" width="14" height="14" fill="rgba(255,255,255,0.9)"/>
    <rect x="300" y="400" width="14" height="14" fill="rgba(255,255,255,0.9)"/>
    <rect x="316" y="400" width="14" height="14" fill="rgba(255,255,255,0.9)"/>
    <rect x="332" y="400" width="14" height="14" fill="rgba(255,255,255,0.9)"/>
    <rect x="300" y="416" width="14" height="14" fill="rgba(255,255,255,0.9)"/>
    <rect x="348" y="416" width="14" height="14" fill="rgba(255,255,255,0.9)"/>
    <rect x="300" y="432" width="14" height="14" fill="rgba(255,255,255,0.9)"/>
    <rect x="348" y="432" width="14" height="14" fill="rgba(255,255,255,0.9)"/>
    <rect x="300" y="448" width="14" height="14" fill="rgba(255,255,255,0.9)"/>
    <rect x="348" y="448" width="14" height="14" fill="rgba(255,255,255,0.9)"/>
    <rect x="300" y="464" width="14" height="14" fill="rgba(255,255,255,0.9)"/>
    <rect x="316" y="464" width="14" height="14" fill="rgba(255,255,255,0.9)"/>
    <rect x="332" y="464" width="14" height="14" fill="rgba(255,255,255,0.9)"/>
    <rect x="380" y="400" width="14" height="14" fill="rgba(255,255,255,0.9)"/>
    <rect x="428" y="400" width="14" height="14" fill="rgba(255,255,255,0.9)"/>
    <rect x="380" y="416" width="14" height="14" fill="rgba(255,255,255,0.9)"/>
    <rect x="428" y="416" width="14" height="14" fill="rgba(255,255,255,0.9)"/>
    <rect x="380" y="432" width="14" height="14" fill="rgba(255,255,255,0.9)"/>
    <rect x="428" y="432" width="14" height="14" fill="rgba(255,255,255,0.9)"/>
    <rect x="380" y="448" width="14" height="14" fill="rgba(255,255,255,0.9)"/>
    <rect x="428" y="448" width="14" height="14" fill="rgba(255,255,255,0.9)"/>
    <rect x="380" y="464" width="14" height="14" fill="rgba(255,255,255,0.9)"/>
    <rect x="396" y="464" width="14" height="14" fill="rgba(255,255,255,0.9)"/>
    <rect x="412" y="464" width="14" height="14" fill="rgba(255,255,255,0.9)"/>
    <rect x="428" y="464" width="14" height="14" fill="rgba(255,255,255,0.9)"/>
    <rect x="460" y="400" width="14" height="14" fill="rgba(255,255,255,0.9)"/>
    <rect x="476" y="400" width="14" height="14" fill="rgba(255,255,255,0.9)"/>
    <rect x="492" y="400" width="14" height="14" fill="rgba(255,255,255,0.9)"/>
    <rect x="508" y="400" width="14" height="14" fill="rgba(255,255,255,0.9)"/>
    <rect x="460" y="416" width="14" height="14" fill="rgba(255,255,255,0.9)"/>
    <rect x="460" y="432" width="14" height="14" fill="rgba(255,255,255,0.9)"/>
    <rect x="460" y="448" width="14" height="14" fill="rgba(255,255,255,0.9)"/>
    <rect x="460" y="464" width="14" height="14" fill="rgba(255,255,255,0.9)"/>
    <rect x="476" y="464" width="14" height="14" fill="rgba(255,255,255,0.9)"/>
    <rect x="492" y="464" width="14" height="14" fill="rgba(255,255,255,0.9)"/>
    <rect x="508" y="464" width="14" height="14" fill="rgba(255,255,255,0.9)"/>
    <rect x="540" y="400" width="14" height="14" fill="rgba(255,255,255,0.9)"/>
    <rect x="556" y="400" width="14" height="14" fill="rgba(255,255,255,0.9)"/>
    <rect x="572" y="400" width="14" height="14" fill="rgba(255,255,255,0.9)"/>
    <rect x="588" y="400" width="14" height="14" fill="rgba(255,255,255,0.9)"/>
    <rect x="540" y="416" width="14" height="14" fill="rgba(255,255,255,0.9)"/>
    <rect x="588" y="416" width="14" height="14" fill="rgba(255,255,255,0.9)"/>
    <rect x="540" y="432" width="14" height="14" fill="rgba(255,255,255,0.9)"/>
    <rect x="556" y="432" width="14" height="14" fill="rgba(255,255,255,0.9)"/>
    <rect x="572" y="432" width="14" height="14" fill="rgba(255,255,255,0.9)"/>
    <rect x="588" y="432" width="14" height="14" fill="rgba(255,255,255,0.9)"/>
    <rect x="540" y="448" width="14" height="14" fill="rgba(255,255,255,0.9)"/>
    <rect x="588" y="448" width="14" height="14" fill="rgba(255,255,255,0.9)"/>
    <rect x="540" y="464" width="14" height="14" fill="rgba(255,255,255,0.9)"/>
    <rect x="588" y="464" width="14" height="14" fill="rgba(255,255,255,0.9)"/>
    <rect x="620" y="400" width="14" height="14" fill="rgba(255,255,255,0.9)"/>
    <rect x="636" y="400" width="14" height="14" fill="rgba(255,255,255,0.9)"/>
    <rect x="652" y="400" width="14" height="14" fill="rgba(255,255,255,0.9)"/>
    <rect x="668" y="400" width="14" height="14" fill="rgba(255,255,255,0.9)"/>
    <rect x="684" y="400" width="14" height="14" fill="rgba(255,255,255,0.9)"/>
    <rect x="652" y="416" width="14" height="14" fill="rgba(255,255,255,0.9)"/>
    <rect x="652" y="432" width="14" height="14" fill="rgba(255,255,255,0.9)"/>
    <rect x="652" y="448" width="14" height="14" fill="rgba(255,255,255,0.9)"/>
    <rect x="652" y="464" width="14" height="14" fill="rgba(255,255,255,0.9)"/>
    <rect x="716" y="400" width="14" height="14" fill="rgba(255,255,255,0.9)"/>
    <rect x="732" y="400" width="14" height="14" fill="rgba(255,255,255,0.9)"/>
    <rect x="748" y="400" width="14" height="14" fill="rgba(255,255,255,0.9)"/>
    <rect x="764" y="400" width="14" height="14" fill="rgba(255,255,255,0.9)"/>
    <rect x="716" y="416" width="14" height="14" fill="rgba(255,255,255,0.9)"/>
    <rect x="716" y="432" width="14" height="14" fill="rgba(255,255,255,0.9)"/>
    <rect x="732" y="432" width="14" height="14" fill="rgba(255,255,255,0.9)"/>
    <rect x="748" y="432" width="14" height="14" fill="rgba(255,255,255,0.9)"/>
    <rect x="716" y="448" width="14" height="14" fill="rgba(255,255,255,0.9)"/>
    <rect x="716" y="464" width="14" height="14" fill="rgba(255,255,255,0.9)"/>
    <rect x="732" y="464" width="14" height="14" fill="rgba(255,255,255,0.9)"/>
    <rect x="748" y="464" width="14" height="14" fill="rgba(255,255,255,0.9)"/>
    <rect x="764" y="464" width="14" height="14" fill="rgba(255,255,255,0.9)"/>
    <rect x="796" y="400" width="14" height="14" fill="rgba(255,255,255,0.9)"/>
    <rect x="812" y="400" width="14" height="14" fill="rgba(255,255,255,0.9)"/>
    <rect x="828" y="400" width="14" height="14" fill="rgba(255,255,255,0.9)"/>
    <rect x="796" y="416" width="14" height="14" fill="rgba(255,255,255,0.9)"/>
    <rect x="844" y="416" width="14" height="14" fill="rgba(255,255,255,0.9)"/>
    <rect x="796" y="432" width="14" height="14" fill="rgba(255,255,255,0.9)"/>
    <rect x="844" y="432" width="14" height="14" fill="rgba(255,255,255,0.9)"/>
    <rect x="796" y="448" width="14" height="14" fill="rgba(255,255,255,0.9)"/>
    <rect x="844" y="448" width="14" height="14" fill="rgba(255,255,255,0.9)"/>
    <rect x="796" y="464" width="14" height="14" fill="rgba(255,255,255,0.9)"/>
    <rect x="812" y="464" width="14" height="14" fill="rgba(255,255,255,0.9)"/>
    <rect x="828" y="464" width="14" height="14" fill="rgba(255,255,255,0.9)"/>
  </g>
  
  <g>
    <rect x="212" y="520" width="14" height="14" fill="rgba(59,130,246,0.85)"/>
    <rect x="228" y="520" width="14" height="14" fill="rgba(59,130,246,0.85)"/>
    <rect x="244" y="520" width="14" height="14" fill="rgba(59,130,246,0.85)"/>
    <rect x="260" y="520" width="14" height="14" fill="rgba(59,130,246,0.85)"/>
    <rect x="276" y="520" width="14" height="14" fill="rgba(59,130,246,0.85)"/>
    <rect x="244" y="536" width="14" height="14" fill="rgba(59,130,246,0.85)"/>
    <rect x="244" y="552" width="14" height="14" fill="rgba(59,130,246,0.85)"/>
    <rect x="244" y="568" width="14" height="14" fill="rgba(59,130,246,0.85)"/>
    <rect x="244" y="584" width="14" height="14" fill="rgba(59,130,246,0.85)"/>
    <rect x="308" y="520" width="14" height="14" fill="rgba(59,130,246,0.85)"/>
    <rect x="324" y="520" width="14" height="14" fill="rgba(59,130,246,0.85)"/>
    <rect x="340" y="520" width="14" height="14" fill="rgba(59,130,246,0.85)"/>
    <rect x="308" y="536" width="14" height="14" fill="rgba(59,130,246,0.85)"/>
    <rect x="356" y="536" width="14" height="14" fill="rgba(59,130,246,0.85)"/>
    <rect x="308" y="552" width="14" height="14" fill="rgba(59,130,246,0.85)"/>
    <rect x="324" y="552" width="14" height="14" fill="rgba(59,130,246,0.85)"/>
    <rect x="340" y="552" width="14" height="14" fill="rgba(59,130,246,0.85)"/>
    <rect x="308" y="568" width="14" height="14" fill="rgba(59,130,246,0.85)"/>
    <rect x="340" y="568" width="14" height="14" fill="rgba(59,130,246,0.85)"/>
    <rect x="308" y="584" width="14" height="14" fill="rgba(59,130,246,0.85)"/>
    <rect x="356" y="584" width="14" height="14" fill="rgba(59,130,246,0.85)"/>
    <rect x="388" y="520" width="14" height="14" fill="rgba(59,130,246,0.85)"/>
    <rect x="404" y="520" width="14" height="14" fill="rgba(59,130,246,0.85)"/>
    <rect x="420" y="520" width="14" height="14" fill="rgba(59,130,246,0.85)"/>
    <rect x="436" y="520" width="14" height="14" fill="rgba(59,130,246,0.85)"/>
    <rect x="388" y="536" width="14" height="14" fill="rgba(59,130,246,0.85)"/>
    <rect x="436" y="536" width="14" height="14" fill="rgba(59,130,246,0.85)"/>
    <rect x="388" y="552" width="14" height="14" fill="rgba(59,130,246,0.85)"/>
    <rect x="404" y="552" width="14" height="14" fill="rgba(59,130,246,0.85)"/>
    <rect x="420" y="552" width="14" height="14" fill="rgba(59,130,246,0.85)"/>
    <rect x="436" y="552" width="14" height="14" fill="rgba(59,130,246,0.85)"/>
    <rect x="388" y="568" width="14" height="14" fill="rgba(59,130,246,0.85)"/>
    <rect x="436" y="568" width="14" height="14" fill="rgba(59,130,246,0.85)"/>
    <rect x="388" y="584" width="14" height="14" fill="rgba(59,130,246,0.85)"/>
    <rect x="436" y="584" width="14" height="14" fill="rgba(59,130,246,0.85)"/>
    <rect x="468" y="520" width="14" height="14" fill="rgba(59,130,246,0.85)"/>
    <rect x="532" y="520" width="14" height="14" fill="rgba(59,130,246,0.85)"/>
    <rect x="468" y="536" width="14" height="14" fill="rgba(59,130,246,0.85)"/>
    <rect x="532" y="536" width="14" height="14" fill="rgba(59,130,246,0.85)"/>
    <rect x="468" y="552" width="14" height="14" fill="rgba(59,130,246,0.85)"/>
    <rect x="532" y="552" width="14" height="14" fill="rgba(59,130,246,0.85)"/>
    <rect x="484" y="568" width="14" height="14" fill="rgba(59,130,246,0.85)"/>
    <rect x="516" y="568" width="14" height="14" fill="rgba(59,130,246,0.85)"/>
    <rect x="500" y="584" width="14" height="14" fill="rgba(59,130,246,0.85)"/>
    <rect x="564" y="520" width="14" height="14" fill="rgba(59,130,246,0.85)"/>
    <rect x="580" y="520" width="14" height="14" fill="rgba(59,130,246,0.85)"/>
    <rect x="596" y="520" width="14" height="14" fill="rgba(59,130,246,0.85)"/>
    <rect x="612" y="520" width="14" height="14" fill="rgba(59,130,246,0.85)"/>
    <rect x="564" y="536" width="14" height="14" fill="rgba(59,130,246,0.85)"/>
    <rect x="564" y="552" width="14" height="14" fill="rgba(59,130,246,0.85)"/>
    <rect x="580" y="552" width="14" height="14" fill="rgba(59,130,246,0.85)"/>
    <rect x="596" y="552" width="14" height="14" fill="rgba(59,130,246,0.85)"/>
    <rect x="564" y="568" width="14" height="14" fill="rgba(59,130,246,0.85)"/>
    <rect x="564" y="584" width="14" height="14" fill="rgba(59,130,246,0.85)"/>
    <rect x="580" y="584" width="14" height="14" fill="rgba(59,130,246,0.85)"/>
    <rect x="596" y="584" width="14" height="14" fill="rgba(59,130,246,0.85)"/>
    <rect x="612" y="584" width="14" height="14" fill="rgba(59,130,246,0.85)"/>
    <rect x="644" y="520" width="14" height="14" fill="rgba(59,130,246,0.85)"/>
    <rect x="644" y="536" width="14" height="14" fill="rgba(59,130,246,0.85)"/>
    <rect x="644" y="552" width="14" height="14" fill="rgba(59,130,246,0.85)"/>
    <rect x="644" y="568" width="14" height="14" fill="rgba(59,130,246,0.85)"/>
    <rect x="644" y="584" width="14" height="14" fill="rgba(59,130,246,0.85)"/>
    <rect x="660" y="584" width="14" height="14" fill="rgba(59,130,246,0.85)"/>
    <rect x="676" y="584" width="14" height="14" fill="rgba(59,130,246,0.85)"/>
    <rect x="692" y="584" width="14" height="14" fill="rgba(59,130,246,0.85)"/>
    <rect x="724" y="520" width="14" height="14" fill="rgba(59,130,246,0.85)"/>
    <rect x="740" y="520" width="14" height="14" fill="rgba(59,130,246,0.85)"/>
    <rect x="756" y="520" width="14" height="14" fill="rgba(59,130,246,0.85)"/>
    <rect x="772" y="520" width="14" height="14" fill="rgba(59,130,246,0.85)"/>
    <rect x="724" y="536" width="14" height="14" fill="rgba(59,130,246,0.85)"/>
    <rect x="724" y="552" width="14" height="14" fill="rgba(59,130,246,0.85)"/>
    <rect x="740" y="552" width="14" height="14" fill="rgba(59,130,246,0.85)"/>
    <rect x="756" y="552" width="14" height="14" fill="rgba(59,130,246,0.85)"/>
    <rect x="724" y="568" width="14" height="14" fill="rgba(59,130,246,0.85)"/>
    <rect x="724" y="584" width="14" height="14" fill="rgba(59,130,246,0.85)"/>
    <rect x="740" y="584" width="14" height="14" fill="rgba(59,130,246,0.85)"/>
    <rect x="756" y="584" width="14" height="14" fill="rgba(59,130,246,0.85)"/>
    <rect x="772" y="584" width="14" height="14" fill="rgba(59,130,246,0.85)"/>
    <rect x="804" y="520" width="14" height="14" fill="rgba(59,130,246,0.85)"/>
    <rect x="820" y="520" width="14" height="14" fill="rgba(59,130,246,0.85)"/>
    <rect x="836" y="520" width="14" height="14" fill="rgba(59,130,246,0.85)"/>
    <rect x="804" y="536" width="14" height="14" fill="rgba(59,130,246,0.85)"/>
    <rect x="852" y="536" width="14" height="14" fill="rgba(59,130,246,0.85)"/>
    <rect x="804" y="552" width="14" height="14" fill="rgba(59,130,246,0.85)"/>
    <rect x="820" y="552" width="14" height="14" fill="rgba(59,130,246,0.85)"/>
    <rect x="836" y="552" width="14" height="14" fill="rgba(59,130,246,0.85)"/>
    <rect x="804" y="568" width="14" height="14" fill="rgba(59,130,246,0.85)"/>
    <rect x="836" y="568" width="14" height="14" fill="rgba(59,130,246,0.85)"/>
    <rect x="804" y="584" width="14" height="14" fill="rgba(59,130,246,0.85)"/>
    <rect x="852" y="584" width="14" height="14" fill="rgba(59,130,246,0.85)"/>
  </g>

  <line x1="300" y1="640" x2="780" y2="640" stroke="rgba(59,130,246,0.15)" stroke-width="0.5"/>

  <text x="540" y="690" text-anchor="middle"
    font-family="Inter, system-ui, sans-serif" font-weight="300" font-size="22" fill="rgba(255,255,255,0.2)" letter-spacing="8">
    TANS FADE. SKILLS LAST.
  </text>
</svg>